# xmcd
#
# Track frame offsets: 
#        150
#        13758
#        26392
#        39187
#        51855
#        65382
#        77979
#        91701
#        106961
#        119767
#        132189
#        142846
#        158343
#        169052
#        180082
#        193238
#        208246
#        223111
#        235821
#        250252
#        264096
#        279243
#        293307
#        305201
#        317475
#
# Disc length: 4412 seconds
#
# Revision: 2
# Processed by: cddbd v1.5.2PL0 Copyright (c) Steve Scherf et al.
# Submitted via: ExactAudioCopy v1.0b3
#
DISCID=4f113a19
DTITLE=Various Artist - Country Slide
DYEAR=2003
DGENRE=Country
TTITLE0=Jimmie Davis - Red Nightgown
TTITLE1=Darby And Tarlton - Ooze It Up To Me
TTITLE2=Dixon Brothers - Dark Eyes
TTITLE3=Cliff Carlisle - Two Eyes In Tennessee
TTITLE4=J.D. Farley - Bill Was A Texas Lad
TTITLE5=Jimmie Davis - She's A Hum Ding Dinger
TTITLE6=Darby And Tarlton - All Bound Down In Texas
TTITLE7=Dixon Brothers - More Pretty Girls Than One
TTITLE8=Cliff Carlisle - Round Up Time In Texas
TTITLE9=Carter Family - Don't Forget This Song
TTITLE10=Jimmie Davis - Arabella Blues
TTITLE11=Darby And Tarlton - Careless Love
TTITLE12=Dixon Brothers - Beyond Black Smoke
TTITLE13=Cliff Carlisle - Ride 'Em 'Til I Die
TTITLE14=Riley Puckett - A Darkie's Wail
TTITLE15=Jimmie Davis - Saturday Night Stroll
TTITLE16=Darby And Tarlton - Lonesome Frisco Line
TTITLE17=Dixon Brothers - Jimmie And Sallie
TTITLE18=Cliff Carlisle - Memories That Haunt Me
TTITLE19=J.D. Farley - I'm A Lone Star Cowboy
TTITLE20=Jimmie Davis - Sewing Machine Blues
TTITLE21=Darby And Tarlton - Slow Wicked Blues
TTITLE22=Dixon Brothers - Beautiful Stars
TTITLE23=Cliff Carlisle - Red Velvet Slippers
TTITLE24=Dock Walsh - Come Bathe In That Beautiful Pool
EXTD=
EXTT0=
EXTT1=
EXTT2=
EXTT3=
EXTT4=
EXTT5=
EXTT6=
EXTT7=
EXTT8=
EXTT9=
EXTT10=
EXTT11=
EXTT12=
EXTT13=
EXTT14=
EXTT15=
EXTT16=
EXTT17=
EXTT18=
EXTT19=
EXTT20=
EXTT21=
EXTT22=
EXTT23=
EXTT24=
PLAYORDER=
